<svg aria-hidden="true" style="position: absolute; width: 0; height: 0; overflow: hidden;" version="1.1" xmlns="http://www.w3.org/2000/svg" xmlns:xlink="http://www.w3.org/1999/xlink">
<defs>
<symbol id="icon-angle" viewBox="0 0 53 32">
<title>angle</title>
<path d="M26.667 30.933c-0.533 0-1.6-0.533-2.133-1.067l-22.4-24.533c-1.067-1.067-1.067-2.667 0-3.733s2.667-1.067 3.733 0l20.8 22.933 20.267-22.4c1.067-1.067 2.667-1.067 3.733 0s1.067 2.667 0 3.733l-21.867 24.533c-0.533 0.533-1.6 0.533-2.133 0.533z"></path>
</symbol>
<symbol id="icon-acount" viewBox="0 0 25 32">
<title>acount</title>
<path d="M12.444 16.889c-4.622 0-8.356-3.733-8.356-8.356s3.733-8.533 8.356-8.533c4.622 0 8.356 3.733 8.356 8.356s-3.733 8.533-8.356 8.533zM12.444 1.778c-3.733 0-6.578 3.022-6.578 6.756s3.022 6.578 6.578 6.578c3.733 0 6.578-3.022 6.578-6.578 0-3.733-2.844-6.756-6.578-6.756z"></path>
<path d="M23.467 32c-0.533 0-0.889-0.356-0.889-0.889 0-5.511-4.622-10.133-10.133-10.133s-10.133 4.622-10.133 10.133c0 0.533-0.356 0.889-0.889 0.889s-0.889-0.356-0.889-0.889c0-6.578 5.333-11.911 11.911-11.911s11.911 5.333 11.911 11.911c0 0.356-0.356 0.889-0.889 0.889z"></path>
</symbol>
<symbol id="icon-bitcoin" viewBox="0 0 32 32">
<title>bitcoin</title>
<path d="M31.564 16c0 8.582-6.982 15.564-15.564 15.564s-15.564-6.982-15.564-15.564 6.982-15.564 15.564-15.564 15.564 6.982 15.564 15.564zM22.691 13.818c0.291-2.036-1.309-3.2-3.491-3.927l0.727-2.764-1.745-0.436-0.727 2.764c-0.436-0.145-0.873-0.291-1.309-0.291l0.727-2.764-1.745-0.582-0.727 2.764c-0.291 0-0.727-0.145-1.018-0.145v0l-2.327-0.727-0.436 1.891c0 0 1.309 0.291 1.309 0.291 0.727 0.145 0.873 0.582 0.727 1.018l-0.873 3.2c0 0 0.145 0 0.145 0s-0.145 0-0.145 0l-1.164 4.509c-0.145 0.145-0.291 0.582-0.727 0.436 0 0-1.309-0.291-1.309-0.291l-0.873 1.891 2.182 0.582c0.436 0.145 0.873 0.145 1.164 0.291l-0.727 2.909 1.745 0.436 0.727-2.764c0.436 0.145 0.873 0.291 1.309 0.291l-0.727 2.764 1.745 0.436 0.727-2.909c2.909 0.582 5.091 0.291 6.109-2.327 0.727-2.182 0-3.345-1.6-4.218 1.309-0.145 2.182-0.873 2.327-2.327v0zM18.764 19.2c-0.582 2.182-4.073 1.018-5.236 0.727l0.873-3.782c1.164 0.291 4.945 0.873 4.364 3.055zM19.345 13.673c-0.436 1.891-3.491 1.018-4.364 0.727l0.873-3.491c0.873 0.436 3.927 0.873 3.491 2.764z"></path>
</symbol>
<symbol id="icon-ethereum" viewBox="0 0 20 32">
<title>ethereum</title>
<path d="M19.584 16.256l-9.344-16-9.344 16 9.344 5.632z"></path>
<path d="M19.584 18.176l-9.344 13.568-9.344-13.568 9.344 5.632z"></path>
</symbol>
<symbol id="icon-lang" viewBox="0 0 32 32">
<title>lang</title>
<path d="M16 31.52c-2.88 0-5.76-0.8-8.16-2.4l-5.76 2.080c-0.48 0.16-0.8 0-0.96-0.48s0-0.8 0.48-0.96l6.4-2.4 0.32 0.16c2.24 1.44 4.96 2.4 7.68 2.4 7.68 0 13.92-6.24 13.92-13.92s-6.24-13.92-13.92-13.92-13.92 6.24-13.92 13.92c0 2.24 0.64 4.64 1.6 6.56 0.16 0.32 0 0.8-0.32 1.12-0.32 0.16-0.8 0-1.12-0.32-1.28-2.24-1.92-4.8-1.92-7.36 0-8.48 6.88-15.52 15.52-15.52 8.48 0 15.52 6.88 15.52 15.52 0.16 8.48-6.88 15.52-15.36 15.52z"></path>
<path d="M21.28 20.64c0 0.32-0.16 0.48-0.32 0.8-0.16 0.16-0.48 0.32-0.64 0.32s-0.32 0-0.64-0.16c-0.16-0.16-0.32-0.32-0.32-0.48l-0.96-2.080h-5.12l-0.96 2.080c-0.16 0.16-0.16 0.32-0.32 0.48s-0.32 0.16-0.48 0.16-0.48-0.16-0.64-0.32-0.32-0.32-0.32-0.64c0-0.16 0-0.16 0-0.32l4.32-10.4c0.16-0.32 0.32-0.48 0.48-0.64 0.16 0 0.32-0.16 0.64-0.16 0.16 0 0.48 0 0.64 0.16s0.32 0.32 0.32 0.48l4.32 10.24c0 0.16 0 0.32 0 0.48zM14.080 16.8h3.52l-1.76-4-1.76 4z"></path>
</symbol>
</defs>
</svg>
